<svg xmlns="http://www.w3.org/2000/svg" viewBox="0 0 864.8 160.79"><defs><style>.cls-1{fill:#fff;}</style></defs><g id="Layer_2" data-name="Layer 2"><g id="Layer_1-2" data-name="Layer 1"><polygon class="cls-1" points="45.63 110.87 30.21 110.87 130.92 0 146.34 0 45.63 110.87"/><polygon class="cls-1" points="99.71 110.87 64.56 110.87 165.27 0 200.42 0 99.71 110.87"/><polygon class="cls-1" points="320.96 110.87 336.38 110.87 235.67 0 220.25 0 320.96 110.87"/><polygon class="cls-1" points="266.88 110.87 302.03 110.87 201.32 0 166.17 0 266.88 110.87"/><rect class="cls-1" x="158.01" y="69.28" width="15.17" height="15.17"/><rect class="cls-1" x="183.23" y="69.28" width="15.18" height="15.17"/><rect class="cls-1" x="158.01" y="93.15" width="15.17" height="15.17"/><rect class="cls-1" x="183.23" y="93.15" width="15.18" height="15.17"/><path class="cls-1" d="M366.59,150.52s-1.43-.43-4.13-1.14-6.66-1.64-11.71-2.72a364.7,364.7,0,0,0-42-6.2c-8.68-.79-18.1-1.35-28-1.57s-20.4-.07-31.19.46c-5.39.27-10.87.68-16.4,1.13l-8.34.83-8.4,1c-2.81.3-5.62.78-8.45,1.17s-5.64.88-8.46,1.33c-5.67.85-11.31,2-17,3.12l-8.45,1.79c-2.81.57-5.59,1.33-8.38,2l-4.19,1-4.4,1.05-4.28,1c-1.45.33-3,.62-4.47.94l-4.48.91-4.43.79c-1.48.26-2.94.51-4.41.73l-4.42.6c-5.86.81-11.7,1.4-17.47,1.73a194,194,0,0,1-33.34-.85,152.71,152.71,0,0,1-29.29-6.31c-4.4-1.49-8.57-3-12.42-4.77S30.7,145,27.47,143.09a105.21,105.21,0,0,1-15.81-11,96.14,96.14,0,0,1-8.84-8.5c-1-1-1.65-1.86-2.12-2.41l-.7-.84s1.25.83,3.62,2.3,5.88,3.52,10.44,5.83a128,128,0,0,0,16.86,7,143.19,143.19,0,0,0,22.63,5.65c4.21.65,8.59,1.3,13.16,1.61,2.28.22,4.61.32,7,.47s4.76.17,7.19.16a225.93,225.93,0,0,0,30.55-2c5.28-.76,10.64-1.5,16-2.57l4.06-.78,4.07-.89,4.09-.86,4-1c1.36-.33,2.67-.62,4.07-1s2.82-.76,4.25-1.13l4.14-1.09,4.39-1.11c5.85-1.54,11.78-2.85,17.72-4.13,6-1.1,11.95-2.25,17.95-3.1l4.49-.66c1.49-.21,3-.35,4.49-.53,3-.31,6-.72,9-1s5.95-.53,8.91-.72l8.85-.41c5.86-.18,11.65-.29,17.35-.11A294.85,294.85,0,0,1,282,122.91a274.11,274.11,0,0,1,28.84,5.4,242.23,242.23,0,0,1,23.68,7.09c6.92,2.48,12.82,5,17.58,7.21s8.38,4.26,10.82,5.64S366.59,150.52,366.59,150.52Z"/><path class="cls-1" d="M426.5,61l-12-21.83h-3.38V61H397V3.13h23.64a26.07,26.07,0,0,1,11.66,2.39,16.47,16.47,0,0,1,7.21,6.55,18.29,18.29,0,0,1,2.39,9.27,17.29,17.29,0,0,1-3.25,10.3,17.57,17.57,0,0,1-9.6,6.42L442.4,61Zm-15.41-31.8h8.74q3.87,0,5.81-1.9a7.15,7.15,0,0,0,1.93-5.35,6.92,6.92,0,0,0-1.93-5.19q-1.93-1.9-5.81-1.9h-8.74Z"/><path class="cls-1" d="M493.82,41.36H461.93a9.57,9.57,0,0,0,2.76,6.55,8.43,8.43,0,0,0,6,2.27c3.52,0,6-1.49,7.34-4.45h15a20.46,20.46,0,0,1-4.16,8.15,20.74,20.74,0,0,1-7.54,5.69,24.26,24.26,0,0,1-10.13,2.06,24.55,24.55,0,0,1-12-2.89,20.46,20.46,0,0,1-8.24-8.23,25.43,25.43,0,0,1-3-12.53,25.71,25.71,0,0,1,2.93-12.52,20.21,20.21,0,0,1,8.2-8.24,24.84,24.84,0,0,1,12.11-2.88A24.54,24.54,0,0,1,483,17.14a20.14,20.14,0,0,1,8.12,8,24.26,24.26,0,0,1,2.92,12.11A37,37,0,0,1,493.82,41.36Zm-14.18-7.83a7.22,7.22,0,0,0-2.47-5.76A9.1,9.1,0,0,0,471,25.62a8.93,8.93,0,0,0-6,2.06,9.21,9.21,0,0,0-3,5.85Z"/><path class="cls-1" d="M509.47,59.57a18.34,18.34,0,0,1-7.42-5.65,14.82,14.82,0,0,1-3.05-8h13.93a5.29,5.29,0,0,0,2.22,3.87A7.87,7.87,0,0,0,520,51.25a7,7,0,0,0,4.08-1,3.16,3.16,0,0,0,1.44-2.68,3.09,3.09,0,0,0-2.06-2.93,41.59,41.59,0,0,0-6.67-2.1,60.46,60.46,0,0,1-8.24-2.43,14.22,14.22,0,0,1-5.68-4,11,11,0,0,1-2.39-7.46,12.7,12.7,0,0,1,2.18-7.21,14.7,14.7,0,0,1,6.43-5.15,24.65,24.65,0,0,1,10.09-1.89q8.65,0,13.64,4.28A16.67,16.67,0,0,1,538.55,30h-13a5.61,5.61,0,0,0-2.1-3.79,7.3,7.3,0,0,0-4.65-1.4,6.45,6.45,0,0,0-3.79.95,3,3,0,0,0-1.32,2.59,3.17,3.17,0,0,0,2.1,3,33.51,33.51,0,0,0,6.55,2,71.82,71.82,0,0,1,8.32,2.59A14.42,14.42,0,0,1,536.29,40a11.7,11.7,0,0,1,2.51,7.62,12.1,12.1,0,0,1-2.27,7.21,15,15,0,0,1-6.5,5,25.09,25.09,0,0,1-9.85,1.81A26.47,26.47,0,0,1,509.47,59.57Z"/><path class="cls-1" d="M573.07,49V61h-7.16q-7.67,0-11.95-3.75T549.68,45V26.69h-5.61V15h5.61V3.79h14.08V15H573v11.7h-9.23V45.15a3.88,3.88,0,0,0,1,3,4.86,4.86,0,0,0,3.3.9Z"/><path class="cls-1" d="M627.86,15,599,82.8H583.87l10.54-23.4L575.71,15h15.74l10.62,28.76L612.62,15Z"/><path class="cls-1" d="M647.06,0V61H633V0Z"/><path class="cls-1" d="M700.36,41.36H668.48a9.57,9.57,0,0,0,2.76,6.55,8.43,8.43,0,0,0,6,2.27c3.52,0,6-1.49,7.34-4.45h15a20.73,20.73,0,0,1-11.7,13.84,24.26,24.26,0,0,1-10.13,2.06,24.55,24.55,0,0,1-12-2.89,20.46,20.46,0,0,1-8.24-8.23,25.43,25.43,0,0,1-3-12.53,25.71,25.71,0,0,1,2.93-12.52,20.21,20.21,0,0,1,8.2-8.24,24.84,24.84,0,0,1,12.11-2.88,24.54,24.54,0,0,1,11.86,2.8,20.14,20.14,0,0,1,8.12,8,24.26,24.26,0,0,1,2.92,12.11A34.85,34.85,0,0,1,700.36,41.36Zm-14.17-7.83a7.22,7.22,0,0,0-2.47-5.76,9.1,9.1,0,0,0-6.18-2.15,8.93,8.93,0,0,0-6,2.06,9.21,9.21,0,0,0-3,5.85Z"/><path class="cls-1" d="M428.3,143l-14.16-24.3h-9.37V143H397V83.53h19.18a25.44,25.44,0,0,1,11.39,2.3,16.1,16.1,0,0,1,6.95,6.22,18.45,18.45,0,0,1-1.24,19.79q-3.54,4.68-10.62,6.22L437.59,143Zm-23.53-30.53h11.42q6.31,0,9.47-3.11a11.14,11.14,0,0,0,3.15-8.31q0-5.3-3.11-8.19c-2.08-1.93-5.24-2.9-9.51-2.9H404.77Z"/><path class="cls-1" d="M491.23,122.5H453.88q.42,6.9,4.73,10.78a15.05,15.05,0,0,0,10.45,3.88,14.39,14.39,0,0,0,8.4-2.34,12.45,12.45,0,0,0,4.73-6.27h8.36a20.08,20.08,0,0,1-7.51,11q-5.62,4.22-14,4.22a23.66,23.66,0,0,1-11.9-3,21,21,0,0,1-8.22-8.48,26.22,26.22,0,0,1-3-12.75,26.68,26.68,0,0,1,2.9-12.7,20.35,20.35,0,0,1,8.14-8.4,24.27,24.27,0,0,1,12.07-2.94,23.49,23.49,0,0,1,11.77,2.89,20.09,20.09,0,0,1,7.88,8,23.49,23.49,0,0,1,2.78,11.47A46,46,0,0,1,491.23,122.5Zm-9.72-14a12.82,12.82,0,0,0-5.33-4.86,16.74,16.74,0,0,0-7.46-1.66,14.4,14.4,0,0,0-10,3.75q-4.14,3.75-4.73,10.41h29.5A14.33,14.33,0,0,0,481.51,108.55Z"/><path class="cls-1" d="M538.3,100.54q5.28,5.16,5.29,14.88V143h-7.68V116.53q0-7-3.49-10.7t-9.56-3.71A12.82,12.82,0,0,0,513.1,106q-3.63,3.84-3.62,11.17V143h-7.76V96.23h7.76v6.65a15.44,15.44,0,0,1,6.26-5.54,19.45,19.45,0,0,1,8.75-2Q533,95.38,538.3,100.54Z"/><path class="cls-1" d="M564.78,140.74a21.13,21.13,0,0,1-8.36-8.48,26,26,0,0,1-3-12.75,25.23,25.23,0,0,1,3.12-12.66A21.38,21.38,0,0,1,565,98.41a26.06,26.06,0,0,1,24,0,21.54,21.54,0,0,1,8.48,8.4,25.21,25.21,0,0,1,3.11,12.7,24.94,24.94,0,0,1-3.19,12.75,22.12,22.12,0,0,1-8.66,8.48,24.81,24.81,0,0,1-12.11,3A23.89,23.89,0,0,1,564.78,140.74ZM584.52,135a14.9,14.9,0,0,0,5.92-5.89,18.8,18.8,0,0,0,2.26-9.55,19.24,19.24,0,0,0-2.21-9.55,14.55,14.55,0,0,0-5.8-5.84,16.74,16.74,0,0,0-15.57,0,14.15,14.15,0,0,0-5.67,5.84,19.79,19.79,0,0,0-2.13,9.55,20.35,20.35,0,0,0,2.09,9.64A13.86,13.86,0,0,0,569,135a15.68,15.68,0,0,0,7.67,1.92A16.49,16.49,0,0,0,584.52,135Z"/><path class="cls-1" d="M628.26,135.8l14.5-39.57H651L632.7,143h-9L605.32,96.23h8.36Z"/><path class="cls-1" d="M658.7,106.85a21,21,0,0,1,8-8.4,21.89,21.89,0,0,1,11.3-3,20.74,20.74,0,0,1,10.66,2.64,17.58,17.58,0,0,1,6.74,6.65V96.23h7.84V143h-7.84v-8.7A18.26,18.26,0,0,1,688.5,141a20.53,20.53,0,0,1-10.61,2.69,21.18,21.18,0,0,1-11.26-3.07,21.59,21.59,0,0,1-7.93-8.61,26.86,26.86,0,0,1-2.9-12.62A26.28,26.28,0,0,1,658.7,106.85Zm34.54,3.45a15,15,0,0,0-5.76-6,16.3,16.3,0,0,0-15.9,0,14.85,14.85,0,0,0-5.72,6,19,19,0,0,0-2.13,9.21,19.41,19.41,0,0,0,2.13,9.33,15.09,15.09,0,0,0,5.72,6.06,15.48,15.48,0,0,0,7.93,2.09,15.71,15.71,0,0,0,8-2.09,14.92,14.92,0,0,0,5.76-6.06,21.06,21.06,0,0,0,0-18.46Z"/><path class="cls-1" d="M725.81,102.63v27.54q0,3.41,1.45,4.82c1,.94,2.64,1.41,5,1.41H738V143h-7q-6.48,0-9.72-3t-3.24-9.81V102.63h-6v-6.4h6V84.46h7.76V96.23H738v6.4Z"/><path class="cls-1" d="M747.64,87.11a5.29,5.29,0,0,1,3.75-9A4.9,4.9,0,0,1,755,79.6a5.48,5.48,0,0,1,0,7.51,4.9,4.9,0,0,1-3.63,1.53A5.1,5.1,0,0,1,747.64,87.11Zm7.51,9.12V143h-7.76V96.23Z"/><path class="cls-1" d="M776.84,140.74a21.17,21.17,0,0,1-8.35-8.48,26,26,0,0,1-3-12.75,25.33,25.33,0,0,1,3.11-12.66,21.47,21.47,0,0,1,8.49-8.44,26.06,26.06,0,0,1,24.05,0,21.54,21.54,0,0,1,8.48,8.4,25.21,25.21,0,0,1,3.11,12.7,24.94,24.94,0,0,1-3.19,12.75,22.12,22.12,0,0,1-8.66,8.48,24.81,24.81,0,0,1-12.11,3A24,24,0,0,1,776.84,140.74ZM796.59,135a15,15,0,0,0,5.92-5.89,18.8,18.8,0,0,0,2.26-9.55,19.24,19.24,0,0,0-2.21-9.55,14.61,14.61,0,0,0-5.8-5.84,16.74,16.74,0,0,0-15.57,0,14.09,14.09,0,0,0-5.67,5.84,19.79,19.79,0,0,0-2.13,9.55,20.35,20.35,0,0,0,2.09,9.64,13.86,13.86,0,0,0,5.59,5.84,15.65,15.65,0,0,0,7.67,1.92A16.49,16.49,0,0,0,796.59,135Z"/><path class="cls-1" d="M859.52,100.54q5.28,5.16,5.28,14.88V143h-7.67V116.53q0-7-3.5-10.7t-9.55-3.71a12.8,12.8,0,0,0-9.76,3.83q-3.63,3.84-3.62,11.17V143h-7.76V96.23h7.76v6.65A15.44,15.44,0,0,1,837,97.34a19.44,19.44,0,0,1,8.74-2Q854.23,95.38,859.52,100.54Z"/></g></g></svg>